<?xml version="1.0" encoding="utf-8"?>
<!-- Generator: Adobe Illustrator 25.3.1, SVG Export Plug-In . SVG Version: 6.00 Build 0)  -->
<svg version="1.1" id="Layer_1" xmlns="http://www.w3.org/2000/svg" xmlns:xlink="http://www.w3.org/1999/xlink" x="0px" y="0px"
	 viewBox="0 0 2000 2000" style="enable-background:new 0 0 2000 2000;" xml:space="preserve">
<style type="text/css">
	.st0{fill-rule:evenodd;clip-rule:evenodd;}
	.st1{fill-rule:evenodd;clip-rule:evenodd;fill:#805726;}
	.st2{fill-rule:evenodd;clip-rule:evenodd;fill:#F5C16D;}
	.st3{fill-rule:evenodd;clip-rule:evenodd;fill:#E4A152;}
	.st4{fill:#AA0000;}
	.st5{font-family:'Copperplate-Light';}
	.st6{font-size:282.8221px;}
	.st7{font-family:'Copperplate-Bold';}
	.st8{font-size:754.1923px;}
</style>
<path class="st0" d="M953.29,1856.6c-526.52-357.76-749.95-868.72-708-1498.94l5.19-82.02l82.01,2.37
	c222.95,6.59,431.77-28.76,622.68-151.32l45.72-29.23l46.19,29.23C1238,249.25,1446.81,284.6,1669.76,278.01l82.02-2.37l5.18,82.02
	c41.96,630.22-181.47,1141.18-707.99,1498.94l-48.08,32.53L953.29,1856.6z"/>
<g>
	<path class="st1" d="M931.13,1888.66C393.31,1523.35,163.28,998.24,206.18,354.83l7.54-119.26l120.19,3.3
		c214.95,6.59,416.69-27.33,600.05-145.18l66.94-42.9l67.4,42.9c183.37,117.85,385.11,151.77,600.06,145.18l119.72-3.3l8.02,119.26
		c42.89,643.41-187.14,1168.51-724.97,1533.83l-70.23,47.61L931.13,1888.66z M953.29,1856.6
		c-526.52-357.76-749.95-868.72-708-1498.94l5.19-82.02l82.01,2.37c222.95,6.59,431.77-28.76,622.68-151.32l45.72-29.23l46.19,29.23
		C1238,249.25,1446.81,284.6,1669.76,278.01l82.02-2.37l5.18,82.02c41.96,630.22-181.47,1141.18-707.99,1498.94l-48.08,32.53
		L953.29,1856.6z"/>
	<path class="st2" d="M330.15,363.31c234.26,7.08,460.99-30.16,670.75-164.97c210.24,134.82,436.97,172.05,671.23,164.97
		c42.89,644.36-203.17,1104.89-671.23,1422.59C533.3,1468.2,287.25,1007.68,330.15,363.31L330.15,363.31z"/>
	<path class="st3" d="M1000.9,198.34c210.24,134.82,436.97,172.05,671.23,164.97c42.89,644.36-203.17,1104.89-671.23,1422.59V198.34
		z"/>
</g>
<text transform="matrix(1 0 0 1 409.0518 799.4155)" class="st4 st5 st6">RECERT</text>
<text transform="matrix(1 0 0 1 760.8213 1374.1621)" class="st4 st7 st8">5</text>
</svg>
